<!DOCTYPE svg PUBLIC "-//W3C//DTD SVG 20010904//EN" "http://www.w3.org/TR/2001/REC-SVG-20010904/DTD/svg10.dtd">
<svg version="1.0" xmlns="http://www.w3.org/2000/svg" width="313px" height="400px" viewBox="0 0 3130 4000" preserveAspectRatio="xMidYMid meet">
<g id="layer101" fill="#000000" stroke="none">
 <path d="M1212 3949 c-63 -36 -89 -57 -158 -129 l-52 -54 69 -137 c38 -75 81 -151 94 -169 14 -19 25 -43 25 -55 0 -12 4 -25 9 -31 5 -5 43 -74 84 -154 41 -80 98 -190 127 -245 50 -96 52 -102 47 -165 -6 -88 4 -72 -242 -417 -25 -35 -49 -63 -54 -63 -5 0 -41 34 -81 75 l-73 74 -136 3 -136 3 80 83 c116 122 266 216 425 268 30 10 56 19 58 20 8 5 -188 369 -200 371 -7 2 -54 -59 -103 -135 -73 -111 -100 -143 -140 -169 -28 -18 -55 -37 -62 -42 -7 -6 -15 -11 -19 -11 -3 0 -23 -13 -44 -30 -21 -16 -41 -30 -44 -30 -4 0 -12 -5 -19 -10 -7 -6 -55 -39 -107 -73 -52 -34 -96 -65 -98 -69 -2 -5 -8 -8 -14 -8 -6 0 -27 -13 -48 -30 -21 -16 -43 -30 -49 -30 -6 0 -11 -3 -11 -8 0 -4 -17 -16 -37 -27 -20 -11 -41 -25 -47 -30 -6 -6 -29 -22 -52 -36 l-40 -27 -13 -118 c-10 -101 -10 -142 3 -269 9 -82 18 -161 21 -175 6 -30 1 -38 -46 -69 -50 -34 -95 -104 -113 -178 -27 -106 8 -214 112 -343 152 -189 147 -181 161 -262 34 -208 52 -247 178 -389 38 -42 92 -114 120 -161 29 -48 71 -102 94 -122 45 -38 120 -72 141 -63 7 2 21 33 31 68 10 35 22 73 27 84 16 38 70 216 70 230 0 8 -9 15 -19 15 -11 0 -23 5 -26 10 -3 6 -13 10 -22 10 -22 0 -118 48 -137 69 -14 15 -14 20 0 46 8 17 27 45 41 63 24 32 26 32 46 17 36 -26 126 -65 151 -65 20 0 26 10 50 87 15 49 39 119 53 156 18 49 23 78 19 105 -18 116 -18 119 0 148 10 16 21 31 24 34 3 3 18 25 33 48 16 24 32 41 35 37 4 -3 12 -34 19 -68 6 -34 16 -82 22 -107 19 -84 13 -208 -13 -285 -14 -38 -58 -169 -100 -290 -41 -121 -93 -272 -115 -335 -22 -63 -39 -116 -37 -117 2 -3 105 -27 176 -43 25 -5 81 -12 125 -15 44 -4 91 -11 105 -16 14 -5 49 -44 79 -85 93 -130 119 -133 200 -20 78 110 74 107 214 122 145 15 327 50 327 63 0 5 -110 306 -130 356 -5 11 -41 108 -80 215 -39 107 -75 205 -81 218 -12 30 -12 121 1 174 6 24 17 78 26 121 9 42 19 77 23 76 9 0 90 -116 100 -142 5 -13 4 -45 -2 -75 -11 -51 -4 -89 33 -177 5 -11 22 -56 38 -100 26 -71 32 -80 57 -83 15 -2 32 1 38 7 6 6 17 11 25 11 8 0 27 10 44 21 l30 22 40 -47 c22 -25 47 -46 56 -46 28 0 -56 -68 -107 -86 -37 -13 -65 -24 -98 -39 -2 -1 13 -46 33 -101 20 -54 48 -136 63 -182 15 -45 32 -87 38 -93 12 -12 73 -3 73 11 0 5 8 11 19 15 32 10 90 77 144 163 28 46 86 123 129 170 82 92 113 144 129 220 8 42 38 227 39 244 0 7 98 139 110 148 3 3 24 30 46 60 63 86 79 132 79 225 -1 68 -5 88 -29 135 -16 30 -46 71 -68 91 -39 35 -40 37 -35 90 2 30 10 118 17 197 17 201 17 203 -84 287 -27 22 -72 60 -101 85 -28 25 -78 67 -110 93 -32 26 -84 70 -114 97 -31 27 -123 107 -205 177 l-149 128 -106 187 c-58 103 -111 188 -117 188 -6 0 -20 -19 -32 -42 -26 -49 -56 -104 -93 -168 -14 -25 -41 -72 -59 -105 -18 -33 -42 -75 -52 -94 -11 -18 -17 -39 -14 -46 2 -6 33 -18 68 -25 34 -7 67 -17 72 -21 6 -5 16 -9 24 -9 31 0 155 -62 257 -129 70 -46 225 -191 225 -210 0 -7 -55 -11 -164 -11 l-165 0 -65 -66 c-37 -36 -70 -63 -74 -60 -4 2 -29 35 -55 73 -27 37 -82 115 -123 173 -131 187 -154 217 -174 235 -19 18 -28 55 -12 55 7 0 45 61 96 153 56 101 77 140 119 214 24 43 59 105 77 138 18 33 42 76 53 95 34 61 119 213 149 268 l30 53 -40 37 c-47 45 -61 54 -132 87 -30 14 -63 30 -72 35 -25 14 -112 12 -126 -2 -8 -8 -12 -46 -12 -106 0 -139 9 -132 -179 -132 -136 0 -160 2 -165 16 -3 9 -6 55 -6 103 0 106 -13 131 -68 131 -23 0 -57 -12 -90 -31z m459 -1492 c54 -74 109 -160 109 -168 0 -5 -31 -9 -70 -9 l-70 0 0 100 c0 55 3 100 8 100 4 0 14 -11 23 -23z m-211 -97 c0 -71 -7 -80 -62 -80 -47 0 -48 1 -37 23 6 12 28 44 47 70 38 53 52 50 52 -13z m-431 -64 l64 -64 -21 -34 c-12 -18 -72 -96 -134 -173 l-113 -140 -129 -3 c-148 -3 -159 1 -201 73 -27 45 -28 75 -6 130 5 11 17 40 27 65 10 25 40 82 66 128 l49 82 167 0 168 0 63 -64z m1547 -26 c29 -47 60 -110 70 -140 10 -30 22 -60 27 -67 12 -17 -28 -94 -74 -144 l-36 -39 -120 0 -119 0 -91 93 c-86 88 -213 248 -213 268 0 6 23 35 52 65 l51 54 201 -2 200 -3 52 -85z m-1106 -115 c0 -2 -21 -34 -47 -70 -27 -37 -52 -74 -58 -83 -20 -30 -40 -57 -71 -89 -30 -31 -36 -33 -104 -33 l-72 0 7 -32 c3 -18 11 -56 17 -85 l11 -52 -49 -75 c-27 -42 -54 -76 -59 -76 -13 0 -45 140 -45 196 0 43 18 71 187 305 l73 99 105 0 c58 0 105 -2 105 -5z m497 -122 c50 -71 114 -163 143 -205 l52 -77 -21 -108 c-12 -59 -26 -112 -30 -116 -6 -6 -30 23 -60 69 -48 74 -51 82 -45 124 4 25 11 55 15 68 5 13 9 39 9 58 l0 34 -83 0 c-52 0 -89 5 -99 13 -20 17 -178 244 -178 257 0 6 38 10 103 10 l102 0 92 -127z"/>
 <path d="M2197 3678 c-50 -80 -87 -152 -87 -168 0 -19 29 -76 75 -150 12 -19 36 -60 53 -90 107 -192 118 -207 197 -276 44 -37 82 -71 85 -74 3 -3 17 -15 31 -25 27 -21 132 -110 158 -135 44 -41 259 -220 264 -220 17 0 -18 175 -60 298 -30 87 -108 235 -166 312 -22 30 -152 167 -288 303 -244 245 -248 248 -262 225z"/>
 <path d="M685 3451 c-104 -103 -204 -204 -222 -223 -89 -99 -187 -273 -229 -405 -27 -84 -40 -153 -30 -153 6 0 197 124 221 143 5 5 78 53 160 107 83 55 155 103 161 108 5 5 20 14 31 20 16 9 198 269 237 339 9 16 -111 253 -127 253 -7 0 -97 -85 -202 -189z"/>
 </g>

</svg>