<svg id="Layer_1" data-name="Layer 1" xmlns="http://www.w3.org/2000/svg" xmlns:xlink="http://www.w3.org/1999/xlink" viewBox="0 0 291.23 266.98"><defs><style>.cls-1{fill:#eee;}.cls-2{fill:url(#linear-gradient);}.cls-3{fill:url(#linear-gradient-2);}.cls-4{fill:url(#linear-gradient-3);}.cls-5{fill:#e0e0e0;}.cls-6{fill:#ccc;}.cls-7{fill:#d1d1d1;}.cls-8{fill:url(#linear-gradient-4);}</style><linearGradient id="linear-gradient" x1="81.64" y1="155.57" x2="79.58" y2="12.8" gradientUnits="userSpaceOnUse"><stop offset="0" stop-color="#d6d6d6"/><stop offset="0.32" stop-color="#cdcdcd"/><stop offset="0.84" stop-color="#b5b5b5"/><stop offset="1" stop-color="#acacac"/></linearGradient><linearGradient id="linear-gradient-2" x1="114.45" y1="172.92" x2="69.32" y2="102.36" gradientUnits="userSpaceOnUse"><stop offset="0" stop-color="#c7c7c7"/><stop offset="0.44" stop-color="#bebebe"/><stop offset="1" stop-color="#acacac"/></linearGradient><linearGradient id="linear-gradient-3" y1="76.45" x2="78.51" y2="76.45" gradientUnits="userSpaceOnUse"><stop offset="0" stop-color="#c7c7c7"/><stop offset="1" stop-color="#acacac"/></linearGradient><linearGradient id="linear-gradient-4" x1="133.55" y1="118.19" x2="132.79" y2="251.73" xlink:href="#linear-gradient"/></defs><path class="cls-1" d="M152.51,264.22l11.3-62.56s47.55-35.74,52-38.7c4.64-12.82,18.05-40.65,18.05-40.65l64.3-82.79L205.75,119l-19.61,39.57-16.61,6.78,7.49-46.7s-14.14-1.8-8.23-26.19,12.69-21.66,12.69-21.66l-29-66.3" transform="translate(-6.92 -4.46)"/><path class="cls-2" d="M152.51,4.46l-28.93,66.3s6.78-2.73,12.69,21.66S128,118.61,128,118.61l7.49,46.7-16.61-6.78L99.31,119,6.92,39.52l64.3,82.79s13.41,27.83,18,40.65c4.43,3,52,38.7,52,38.7l11.26,62.56Z" transform="translate(-6.92 -4.46)"/><path class="cls-1" d="M88.41,177.65S37.72,214.13,113,237l39.56,34.48s-77.42-13.62-97.61-35.6C33.11,212.1,88.41,177.65,88.41,177.65Z" transform="translate(-6.92 -4.46)"/><path class="cls-1" d="M216.64,177.65s50.69,36.48-24.56,59.31l-39.56,34.48s77.41-13.62,97.6-35.6C271.94,212.1,216.64,177.65,216.64,177.65Z" transform="translate(-6.92 -4.46)"/><polygon class="cls-3" points="64.31 117.85 82.35 158.5 134.33 197.19 145.6 259.76 145.58 183.46 97.08 154.31 78.5 116.69 64.31 117.85"/><polygon class="cls-4" points="64.31 117.84 0 35.05 78.5 116.68 64.31 117.84"/><polygon class="cls-5" points="291.23 35.06 212.93 116.57 193.79 155.33 145.58 183.46 145.6 259.76 157.15 197.08 209.13 158.39 227.18 117.73 291.23 35.06"/><polygon class="cls-6" points="116.66 66.3 145.58 72.88 145.6 0 116.66 66.3"/><polygon class="cls-5" points="174.52 66.3 145.6 72.88 145.58 0 174.52 66.3"/><path class="cls-7" d="M88.41,177.65a90.62,90.62,0,0,0-15.3,13c-6.81,7.09-17.64,18.67-13.71,29.5,3.22,8.85,13.43,14,21.55,17.42a250.16,250.16,0,0,0,34.32,11.73l.1,0,37.15,22.1s-78.66-13.71-97.6-35.6S75.6,186,88.41,177.65Z" transform="translate(-6.92 -4.46)"/><path class="cls-7" d="M216.66,177.65a90.62,90.62,0,0,1,15.3,13c6.81,7.09,17.64,18.67,13.71,29.5-3.22,8.85-13.43,14-21.55,17.42a250.16,250.16,0,0,1-34.32,11.73l-.1,0-37.15,22.1s78.66-13.71,97.6-35.6S229.47,186,216.66,177.65Z" transform="translate(-6.92 -4.46)"/><polygon class="cls-8" points="121.12 114.15 145.63 120.57 145.63 183.46 128.61 160.85 121.12 114.15"/></svg>